<svg width="515" height="202" viewBox="0 0 515 202" fill="none" xmlns="http://www.w3.org/2000/svg">
<rect width="515" height="202" fill="#00000000"/>
<path fill-rule="evenodd" clip-rule="evenodd" d="M0 46C0 20.5949 20.5949 0 46 0H156C181.405 0 202 20.5949 202 46V156C202 181.405 181.405 202 156 202H46C20.5949 202 0 181.405 0 156V46ZM46 2C21.6995 2 2 21.6995 2 46V156C2 180.301 21.6995 200 46 200H156C180.301 200 200 180.301 200 156V46C200 21.6995 180.301 2 156 2H46Z" fill="#fefcfc"/>
<path fill-rule="evenodd" clip-rule="evenodd" d="M403.919 7.05147e-09H424.081C445.226 -2.73476e-06 461.19 -4.76837e-06 473.51 1.65644C485.875 3.31887 494.72 6.66622 501.527 13.4731C508.334 20.28 511.681 29.1245 513.344 41.4895C515 53.81 515 69.7743 515 90.9189V111.081C515 132.226 515 148.19 513.344 160.51C511.681 172.875 508.334 181.72 501.527 188.527C494.72 195.334 485.875 198.681 473.51 200.344C461.19 202 445.226 202 424.081 202H403.919C382.774 202 366.81 202 354.49 200.344C342.125 198.681 333.28 195.334 326.473 188.527C319.666 181.72 316.319 172.875 314.656 160.51C313 148.19 313 132.226 313 111.081V90.9188C313 69.7742 313 53.81 314.656 41.4895C316.319 29.1245 319.666 20.28 326.473 13.4731C333.28 6.66622 342.125 3.31887 354.49 1.65644C366.81 -4.76837e-06 382.774 -2.73476e-06 403.919 7.05147e-09ZM354.756 3.63861C342.613 5.27122 334.261 8.51397 327.887 14.8873C321.514 21.2606 318.271 29.6128 316.639 41.756C315.002 53.928 315 69.7585 315 91V111C315 132.241 315.002 148.072 316.639 160.244C318.271 172.387 321.514 180.739 327.887 187.113C334.261 193.486 342.613 196.729 354.756 198.361C366.928 199.998 382.759 200 404 200H424C445.241 200 461.072 199.998 473.244 198.361C485.387 196.729 493.739 193.486 500.113 187.113C506.486 180.739 509.729 172.387 511.361 160.244C512.998 148.072 513 132.241 513 111V91C513 69.7585 512.998 53.928 511.361 41.756C509.729 29.6128 506.486 21.2606 500.113 14.8873C493.739 8.51397 485.387 5.27122 473.244 3.63861C461.072 2.00212 445.241 2 424 2H404C382.759 2 366.928 2.00212 354.756 3.63861Z" fill="#fcfefe"/>
</svg>
